<svg xmlns="http://www.w3.org/2000/svg" xmlns:xlink="http://www.w3.org/1999/xlink" viewBox="0 0 787.11 787.11"><defs><style>.cls-1{fill:url(#linear-gradient);}</style><linearGradient id="linear-gradient" y1="393.55" x2="787.11" y2="393.55" gradientUnits="userSpaceOnUse"><stop offset="0" stop-color="#91eae4"/><stop offset="0.5" stop-color="#86a8e7"/><stop offset="1" stop-color="#7f7fd5"/></linearGradient></defs><g id="Layer_2" data-name="Layer 2"><g id="Layer_1-2" data-name="Layer 1"><path class="cls-1" d="M598.61,598.61,421.84,775.39a40,40,0,0,1-56.57,0L11.72,421.84a40,40,0,0,1,0-56.57L365.27,11.72a40,40,0,0,1,56.57,0L598.61,188.49a40,40,0,0,1-56.56,56.57L393.55,96.57l-297,297,297,297,148.5-148.49a40,40,0,0,1,56.56,56.56Zm176.78-56.56a40,40,0,0,1,0,56.57L598.61,775.39a40,40,0,1,1-56.56-56.57L690.54,570.33,570.33,450.12,421.84,598.62a40,40,0,0,1-56.57,0L188.5,421.84a40,40,0,0,1,0-56.56L365.27,188.5a40,40,0,0,1,56.57,0L570.33,337,690.54,216.78,542.05,68.29a40,40,0,1,1,56.56-56.57L775.39,188.49a40,40,0,0,1,0,56.57L626.9,393.56ZM513.77,393.56,393.56,273.35,273.35,393.56,393.56,513.77Z"/></g></g></svg>